# xmcd
# Track frame offsets:
# 150
# 13397
# 26173
# 40186
# 53527
# 64052
# 76079
# 88852
# 101968
# 115450
# 127524
# 140212
# 152147
# 165251
# 179012
# 191345
# 203575
# 216719
# 226646
# 237751
# 249311
# 263877
# 276323
# 290569
#
# Disc length: 4037 seconds
# Revision: 0
# Processed by: cddbd v1.5.1PL2 Copyright (c) Steve Scherf et al.
# Submitted via: VisiTrax 2.9.10.228 - For more info visit www.synapsa.com
#
DISCID=580fc318
DTITLE=Various Artist - Country Music Is Here To Stay (Volume One) Disc1
DYEAR=1900
DGENRE=
TTITLE0=Tex Ritter and His Texans - Jealous Heart
TTITLE1=Foy Willing - Texas Blues
TTITLE2=Wesley Tuttle * - Detour
TTITLE3=Tex Williams   * - California Polka
TTITLE4=Merle Travis - Cincinnati Lou
TTITLE5=Red Ingle      * - Cigarettes, Whiskey And Wild, Wild Women
TTITLE6=Tex Ritter and His Texans - I'm Wasting My Tears On You
TTITLE7=Wesley Tuttle  * - With Tears In My Eyes
TTITLE8=Tex Willaims   * - Smoke Smoke Smoke That Cigarette
TTITLE9=Merle Travis - No Vacancy
TTITLE10=Jack Guthrie   * - Oklahoma Hills
TTITLE11=Jimmy Wakely - Till The End Of The World
TTITLE12=Wesley Tuttle  * - I Wish I Had Never Met Someone
TTITLE13=Tex Ritter - Long Time Gone
TTITLE14=Merle Travis - Missouri
TTITLE15=Jo Stafford - Feudin' And Fightin'
TTITLE16=Cliffie Stone - Peepin' Thru The Keyhole
TTITLE17=Foy Williams   * - Anytime
TTITLE18=Jack Guthrie   * - Oakie Boogie
TTITLE19=Hank Thompson  * - Green Light
TTITLE20=Tennessee Ernie Ford - The Cry Of The Wild Goose
TTITLE21=Leon Payne - I Love You Because
TTITLE22=Tommy Duncan - Gamblin Polka Dot Blues
TTITLE23=Faron Young - Going Steady
EXTD=EMI 7245 5 21930 2 8
EXTT0=1944
EXTT1=1944
EXTT2=Wesley Tuttle and His Texas Stars.\n1945
EXTT3=Tex Williams and His Western Caravan.\n1946
EXTT4=1946
EXTT5=Red Ingle and The Natural Seven.\n1947
EXTT6=1944
EXTT7=Wesley Tuttle and His Texas Stars.\n1945
EXTT8=Tex Williams and His Western Caravan.\n1947
EXTT9=1946
EXTT10=Jack Guthrie and His Oklahomans.\n1945
EXTT11=1948
EXTT12=Wesley Tuttle and His Texas Stars.\n1945
EXTT13=1946
EXTT14=1946
EXTT15=1947
EXTT16=
EXTT17=Foy Willing and His Riders Of The Purple Sage.
EXTT18=Jack Guthrie and His Oklahomans.\n1947
EXTT19=Hank Thompson and His Brogas Valley Boys.\n1948
EXTT20=1949
EXTT21=1949
EXTT22=1949
EXTT23=1954
PLAYORDER=
